Coordinates
version=1
nRows=11
nColumns=36
inDegrees=yes

Units are S.I. units (second, meters, Newtons, ...)
If the header above contains a line with 'inDegrees', this indicates whether rotational values are in degrees (yes) or radians (no).

endheader
time	pelvis_tilt	pelvis_list	pelvis_rotation	pelvis_tx	pelvis_ty	pelvis_tz	hip_flexion_r	hip_adduction_r	hip_rotation_r	knee_angle_r	knee_angle_r_beta	ankle_angle_r	subtalar_angle_r	mtp_angle_r	hip_flexion_l	hip_adduction_l	hip_rotation_l	knee_angle_l	knee_angle_l_beta	ankle_angle_l	subtalar_angle_l	mtp_angle_l	lumbar_extension	lumbar_bending	lumbar_rotation	arm_flex_r	arm_add_r	arm_rot_r	elbow_flex_r	pro_sup_r	arm_flex_l	arm_add_l	arm_rot_l	elbow_flex_l	pro_sup_l
     29.73333330	      6.17215265	     -0.42625280	    180.84969634	      0.51669480	      0.84533141	      0.72237503	     13.67344078	      0.11865679	     -2.89755178	     20.04641580	      0.34987596	     -4.64157199	    -17.63587704	     -7.49999987	     32.85034286	     -1.04140113	     -7.22494378	     53.12398315	      0.92718842	    -19.08357039	    -22.12746091	     -7.49999987	     -7.00787943	     -1.15635150	      3.53193139	     13.23107645	    -13.64156495	     -3.79963469	     19.92950399	     87.08960614	     12.32772116	     -9.98595453	     -8.49296714	     11.39545387	     92.72145177
     29.75000000	      6.75959744	     -0.73839529	    181.28647899	      0.52114977	      0.84659327	      0.72456780	     12.79149665	     -0.07405678	     -3.77812223	     18.51835731	      0.32320631	     -3.65465011	    -16.07108622	     -7.49999987	     33.06906998	     -0.20585125	     -7.84662546	     45.49944305	      0.79411509	    -18.96395262	    -21.08590597	     -7.49999987	     -6.89421425	     -1.73914851	      4.10173584	     14.07953660	    -14.50709426	     -2.27970976	     22.40640989	     85.17461867	     11.92211840	     -9.95368100	     -9.62795010	     10.60178997	     92.46724833
     29.76666670	      7.34430398	     -0.61273286	    181.17586751	      0.52729817	      0.84568376	      0.72365330	     12.56793518	      0.31300109	     -4.08358454	     18.21672286	      0.31794179	     -2.25870573	    -15.06819288	     -7.49999987	     33.73740123	      0.24349465	     -7.60038948	     38.49652257	      0.67189107	    -18.73718796	    -18.99131572	     -7.49999987	     -6.86702614	     -1.74377363	      4.66055289	     15.55399097	    -15.33663519	     -1.83374390	     24.46507296	     84.13127985	     10.86256143	     -9.93853942	    -12.03000970	     10.67448992	     92.90886338
     29.78333330	      7.97605260	      0.06809357	    180.64521727	      0.53295217	      0.84376771	      0.72012966	     12.83865093	      1.44077771	     -3.93323665	     19.11861529	      0.33368279	     -0.00187617	    -14.12812798	     -7.49999987	     34.84218018	     -0.08346768	     -6.34253750	     32.65568524	      0.56994923	    -18.73054326	    -16.65075548	     -7.49999987	     -6.55621827	     -1.19154022	      5.94678500	     16.69523133	    -16.65299613	     -0.85276650	     26.99490295	     83.10971328	      9.92901621	     -9.79758375	    -13.97091046	     10.23229624	     92.99698920
     29.80000000	      8.50246243	      1.11545994	    179.98848880	      0.53622035	      0.84204834	      0.71698927	     12.91509793	      3.11441489	     -3.31275883	     20.35498470	      0.35526150	      2.53361917	    -13.18210527	     -7.49999987	     35.90839961	     -1.11560889	     -4.74255933	     27.57969221	      0.48135644	    -18.09541631	    -13.87903560	     -7.49999987	     -6.05692517	     -0.31674922	      7.31787477	     17.98052495	    -17.90123049	     -0.00867119	     28.80355921	     81.88752093	      9.04979914	     -9.80871493	    -14.88299108	      9.48945885	     91.50791704
     29.81666670	      8.15100382	      2.35004218	    179.38270260	      0.53671748	      0.84150140	      0.71560358	     11.24899643	      4.95382402	     -2.69049061	     20.60024544	      0.35954211	      4.61215524	    -11.95668581	     -7.49999987	     35.83570169	     -2.45593767	     -2.79334122	     22.61769017	      0.39475316	    -17.74632251	    -11.73391220	     -7.49999987	     -6.39772538	      0.73532370	      8.65656567	     19.18985410	    -19.18164610	      0.80013510	     30.61759746	     81.06723703	      8.19543905	     -9.71443650	    -16.37962689	      8.48757108	     90.69633959
     29.83333330	      7.59919851	      3.71602434	    178.70471780	      0.53518254	      0.83950089	      0.71623104	      8.39587778	      6.72543374	     -2.02143584	     19.55671353	      0.34132904	      5.86497339	    -10.58502693	     -7.49999987	     34.68825813	     -4.10594270	     -1.87688527	     16.94345607	      0.29571910	    -16.94324281	     -8.83703465	     -7.49999987	     -6.48776222	      2.04544010	     10.00542544	     20.14982184	    -20.33442977	      1.63687115	     31.63423828	     79.99557654	      7.40568524	     -9.54837818	    -18.25875485	      7.18079217	     89.91031578
     29.85000000	      6.79417691	      5.19603535	    178.26593427	      0.53304251	      0.83716230	      0.71989023	      4.75393503	      8.23720641	     -1.90628270	     17.89587711	      0.31234198	      7.24927820	     -8.77547336	     -7.49999987	     32.94805470	     -5.56454567	     -1.27759991	     11.08325887	      0.19343936	    -15.96716315	     -6.03019587	     -7.49999987	     -6.80876556	      3.72173993	     10.49608754	     21.29525361	    -21.31214831	      3.48021342	     32.33284149	     76.84448301	      6.27231150	     -9.09760786	    -24.82206014	      6.51568013	     93.75658335
     29.86666670	      6.21064382	      6.30437936	    177.89867334	      0.53172310	      0.83591608	      0.72344017	      1.52306524	      9.12604873	     -2.02251487	     16.84524927	      0.29400506	      9.13807366	     -6.99151896	     -7.49999987	     31.39951466	     -6.53710093	     -1.26877865	      6.13162587	      0.10701706	    -14.39562309	     -3.12057162	     -7.49999987	     -6.83467979	      4.99483120	     11.23168385	     21.59232822	    -22.14019724	      3.72921866	     32.82013000	     76.79702385	      5.34691352	     -8.82268989	    -25.23416698	      5.91009053	     93.80372014
     29.88333330	      5.98009787	      6.91218219	    177.67038871	      0.53239903	      0.83547409	      0.72393363	     -0.64412630	      9.42027413	     -2.36998734	     16.95913970	      0.29599283	     11.54066136	     -5.31991710	     -7.49999987	     30.64180664	     -7.06398399	     -1.01362037	      3.13990498	      0.05480168	    -12.93655943	     -1.30761191	     -7.49999987	     -6.57430272	      5.59257896	     11.34237067	     21.70895448	    -22.56883793	      4.06678272	     33.41124731	     76.72532004	      4.34470109	     -8.69783720	    -25.65824179	      5.62558692	     93.68864907
     29.90000000	      6.00531115	      7.08828701	    177.68812082	      0.53372330	      0.83387913	      0.72362503	     -1.80780545	      9.32640897	     -2.55738623	     17.94208253	      0.31314841	     14.02235894	     -3.86414659	     -7.49999987	     30.58462620	     -7.21592727	     -0.31932795	      2.13928449	      0.03733756	    -11.51299980	     -0.42345316	     -7.49999987	     -6.47826938	      5.54855243	     11.13603023	     21.64466287	    -22.79825069	      4.57444232	     33.92143441	     76.70705921	      3.71852290	     -8.76593469	    -26.12998216	      5.59835118	     93.76693138
